<svg width="560" height="120" viewBox="0 0 560 120" fill="none" xmlns="http://www.w3.org/2000/svg">
<g clip-path="url(#clip0)">
<path d="M188.389 45.2046C184.033 49.4963 178.153 51.881 172.04 51.8341C165.928 51.7872 160.084 49.3124 155.795 44.9544C151.506 40.5963 149.123 34.7118 149.17 28.5955C149.217 22.4792 151.69 16.632 156.045 12.3403C160.235 8.00224 165.969 5.49766 171.996 5.37265C178.024 5.24765 183.856 7.51236 188.222 11.673L183.054 17.1782C180.12 14.4217 176.221 12.9294 172.198 13.0231C168.175 13.1167 164.35 14.7887 161.547 17.6786C158.837 20.5708 157.351 24.4 157.4 28.364C157.449 32.3281 159.028 36.1196 161.808 38.9443C164.588 41.769 168.352 43.4078 172.313 43.5175C176.273 43.6271 180.122 42.1991 183.054 39.5326L188.389 45.2046Z" fill="#122431"/>
<path d="M234.903 5.33365V51.5439H227.234V32.3591H206.061V51.5439H198.392V5.33365H206.061V24.5184H227.234V5.33365H234.903Z" fill="#122431"/>
<path d="M245.073 51.5439V5.33365H252.742V51.5439H245.073Z" fill="#122431"/>
<path d="M299.423 5.33365V51.7107L270.581 23.5175V51.5439H262.745V5.16682L291.587 33.3601V5.33365H299.423Z" fill="#122431"/>
<path d="M348.271 51.5439H339.935L336.768 43.87H320.93L317.762 51.5439H309.426L328.932 5L348.271 51.5439ZM333.6 36.1961L328.932 25.0189L324.264 36.1961H333.6Z" fill="#122431"/>
<path d="M171.718 66.3913C173.535 66.413 175.33 66.7928 177.001 67.5088C178.671 68.2249 180.184 69.2632 181.454 70.5644C182.723 71.8657 183.724 73.4045 184.399 75.0928C185.074 76.7812 185.411 78.5861 185.388 80.4045C185.433 84.0927 184.023 87.6499 181.464 90.3045C178.905 92.9591 175.403 94.497 171.718 94.5845H158.88V114.603H150.878V66.3913H171.718ZM177.553 80.4045C177.513 78.8526 176.89 77.3727 175.809 76.2597C174.728 75.1466 173.267 74.4822 171.718 74.3988H158.88V86.4101H171.718C173.28 86.3667 174.764 85.7148 175.854 84.5932C176.944 83.4716 177.553 81.9688 177.553 80.4045V80.4045Z" fill="#122431"/>
<path d="M226.068 114.603H217.232L213.898 106.596H197.393L194.058 114.603H185.389L205.728 65.8908L226.068 114.603ZM210.563 98.5883L205.728 86.9106L200.894 98.5883H210.563Z" fill="#122431"/>
<path d="M259.078 66.3913V74.3988H248.242V114.603H240.239V74.3988H229.569V66.3913H259.078Z" fill="#122431"/>
<path d="M307.593 66.3913V114.603H299.59V94.5845H277.583V114.603H269.414V66.3913H277.583V86.4101H299.59V66.3913H307.593Z" fill="#122431"/>
<path d="M326.265 74.3988V86.4101H344.937V94.5845H326.265V114.603H318.262V66.3913H348.271V74.3988H326.265Z" fill="#122431"/>
<path d="M358.775 114.603V66.3913H366.778V114.603H358.775Z" fill="#122431"/>
<path d="M415.459 66.3912V114.77L385.449 85.2424V114.603H377.28V66.2244L407.456 95.7523V66.3912H415.459Z" fill="#122431"/>
<path d="M440.133 66.3913C443.466 66.1136 446.819 66.5307 449.982 67.6162C453.145 68.7016 456.048 70.4318 458.508 72.6973C460.969 74.9628 462.933 77.7145 464.276 80.7783C465.62 83.8422 466.313 87.1516 466.313 90.4973C466.313 93.8431 465.62 97.1525 464.276 100.216C462.933 103.28 460.969 106.032 458.508 108.297C456.048 110.563 453.145 112.293 449.982 113.378C446.819 114.464 443.466 114.881 440.133 114.603H426.129V66.3913H440.133ZM456.305 90.4139C456.261 86.1512 454.538 82.078 451.51 79.0793C448.482 76.0805 444.394 74.3986 440.133 74.3988H434.132V106.596H440.133C444.422 106.596 448.536 104.891 451.568 101.856C454.601 98.8216 456.305 94.7056 456.305 90.4139V90.4139Z" fill="#122431"/>
<path d="M482.812 74.3988V86.4101H501.485V94.5845H482.812V106.596H504.819V114.603H474.81V66.3913H504.819V74.3988H482.812Z" fill="#122431"/>
<path d="M553.001 114.603H543.165L529.327 94.5845H523.325V114.603H515.323V66.3913H536.163C539.772 66.1704 543.327 67.3553 546.083 69.6979C548.84 72.0405 550.583 75.3592 550.95 78.9592C551.316 82.5592 550.276 86.1614 548.048 89.0117C545.82 91.862 542.577 93.7394 538.997 94.2509L553.001 114.603ZM536.163 86.4101C537.228 86.4347 538.28 86.1751 539.212 85.658C540.144 85.1409 540.921 84.3849 541.464 83.4678C542.007 82.5506 542.297 81.5053 542.303 80.4392C542.308 79.3732 542.031 78.3247 541.498 77.4016C540.959 76.4682 540.18 75.6969 539.241 75.1685C538.303 74.6402 537.239 74.3743 536.163 74.3988H523.325V86.4101H536.163Z" fill="#122431"/>
</g>
<path d="M73.1321 38.503C73.1321 44.2252 77.791 48.8861 83.5108 48.8861H116.953V5H73.1321V38.503Z" fill="#D13F36"/>
<path d="M83.5112 51.1935C76.5459 51.1473 70.8722 45.4712 70.8261 38.503V5H27.0969V10.63C27.0969 17.6444 21.4232 23.3205 14.4118 23.3666H8V31.6732H24.2831C31.2945 31.7193 36.9683 37.3954 36.9683 44.4098V49.1169C36.9683 54.8391 41.6733 59.5462 47.3931 59.5462H52.0982C59.1096 59.5923 64.7833 65.2684 64.8295 72.2828V73.2519C67.1358 69.9754 70.9645 67.8065 75.2543 67.8065H116.954V51.1935H83.5112Z" fill="#D13F36"/>
<path d="M111.326 94.9873H116.953V70.1139H75.2537C69.5339 70.1139 64.8289 74.7748 64.8289 80.497V114H98.5944V107.678C98.6405 100.663 104.314 94.9873 111.326 94.9873Z" fill="#D13F36"/>
<path d="M37.7524 97.0639V114H62.523V80.497V72.2828C62.523 66.5605 57.818 61.8535 52.0982 61.8535H47.3931C40.3817 61.8074 34.708 56.1312 34.6619 49.1169V44.4098C34.6619 38.6876 30.003 33.9805 24.2831 33.9805H8V84.3273H25.0212C32.0326 84.3734 37.7063 90.0495 37.7524 97.0639Z" fill="#D13F36"/>
<path d="M111.326 97.2947C105.606 97.2947 100.901 101.956 100.901 107.678V114H116.954V97.2947H111.326Z" fill="#D13F36"/>
<path d="M14.4118 21.0593C20.1316 21.0593 24.7905 16.3522 24.7905 10.63V5H8V21.0593H14.4118Z" fill="#D13F36"/>
<path d="M35.446 97.0639C35.446 91.3417 30.741 86.6346 25.0212 86.6346H8V114H35.446V97.0639Z" fill="#D13F36"/>
<defs>
<clipPath id="clip0">
<rect width="545" height="111" fill="white" transform="translate(8 5)"/>
</clipPath>
</defs>
</svg>
